<svg width="402" height="78" viewBox="0 0 402 78" fill="none" xmlns="http://www.w3.org/2000/svg">
<path d="M28.4188 65.3384L2.39564 40.5494C-0.798545 37.5067 -0.798545 32.5623 2.39564 29.5196L39.9977 65.3384C36.7801 68.3811 31.613 68.3811 28.4188 65.3384Z" fill="#A6BCFA"/>
<path d="M32.9255 30.2051C33.896 31.1382 37.114 33.5938 40 33.5938V18.9339C40 14.2192 36.0158 10.3885 31.1122 10.3885V16.6257L28.3029 13.9245C26.1576 11.8618 23.3227 10.5112 20.309 10.3885C17.0145 10.2657 13.8731 11.4198 11.5746 13.6544C7.02853 18.0253 7.02853 25.122 11.5746 29.4929L32.9511 50.0462C36.4244 46.7066 36.4244 41.2798 32.9511 37.9402L17.8573 23.4276C16.708 22.3226 16.7846 20.5055 18.0616 19.4987C19.1853 18.6147 20.8454 18.8111 21.8414 19.7934" fill="white"/>
<path d="M73.86 59V23.18H61.62V17H93.84V23.18H81.54V59H73.86ZM108.419 59.72C105.419 59.72 102.759 59.08 100.439 57.8C98.1186 56.52 96.2986 54.72 94.9786 52.4C93.6586 50.08 92.9986 47.4 92.9986 44.36C92.9986 41.28 93.6386 38.54 94.9186 36.14C96.2386 33.74 98.0386 31.88 100.319 30.56C102.639 29.2 105.359 28.52 108.479 28.52C111.399 28.52 113.979 29.16 116.219 30.44C118.459 31.72 120.199 33.48 121.439 35.72C122.719 37.92 123.359 40.38 123.359 43.1C123.359 43.54 123.339 44 123.299 44.48C123.299 44.96 123.279 45.46 123.239 45.98H100.619C100.779 48.3 101.579 50.12 103.019 51.44C104.499 52.76 106.279 53.42 108.359 53.42C109.919 53.42 111.219 53.08 112.259 52.4C113.339 51.68 114.139 50.76 114.659 49.64H122.459C121.899 51.52 120.959 53.24 119.639 54.8C118.359 56.32 116.759 57.52 114.839 58.4C112.959 59.28 110.819 59.72 108.419 59.72ZM108.479 34.76C106.599 34.76 104.939 35.3 103.499 36.38C102.059 37.42 101.139 39.02 100.739 41.18H115.559C115.439 39.22 114.719 37.66 113.399 36.5C112.079 35.34 110.439 34.76 108.479 34.76ZM144.398 59.72C141.358 59.72 138.678 59.06 136.358 57.74C134.038 56.42 132.198 54.58 130.838 52.22C129.518 49.86 128.858 47.16 128.858 44.12C128.858 41.08 129.518 38.38 130.838 36.02C132.198 33.66 134.038 31.82 136.358 30.5C138.678 29.18 141.358 28.52 144.398 28.52C148.198 28.52 151.398 29.52 153.998 31.52C156.598 33.48 158.258 36.2 158.978 39.68H150.878C150.478 38.24 149.678 37.12 148.478 36.32C147.318 35.48 145.938 35.06 144.338 35.06C142.218 35.06 140.418 35.86 138.938 37.46C137.458 39.06 136.718 41.28 136.718 44.12C136.718 46.96 137.458 49.18 138.938 50.78C140.418 52.38 142.218 53.18 144.338 53.18C145.938 53.18 147.318 52.78 148.478 51.98C149.678 51.18 150.478 50.04 150.878 48.56H158.978C158.258 51.92 156.598 54.62 153.998 56.66C151.398 58.7 148.198 59.72 144.398 59.72ZM165.795 59V15.8H173.475V33.8C174.475 32.16 175.815 30.88 177.495 29.96C179.215 29 181.175 28.52 183.375 28.52C187.055 28.52 189.895 29.68 191.895 32C193.935 34.32 194.955 37.72 194.955 42.2V59H187.335V42.92C187.335 40.36 186.815 38.4 185.775 37.04C184.775 35.68 183.175 35 180.975 35C178.815 35 177.015 35.76 175.575 37.28C174.175 38.8 173.475 40.92 173.475 43.64V59H165.795Z" fill="#A6BCFA"/>
<path d="M216.818 59.72C213.738 59.72 211.018 59.2 208.658 58.16C206.298 57.08 204.438 55.56 203.078 53.6C201.718 51.6 201.018 49.18 200.978 46.34H209.078C209.158 48.3 209.858 49.96 211.178 51.32C212.538 52.64 214.398 53.3 216.758 53.3C218.798 53.3 220.418 52.82 221.618 51.86C222.818 50.86 223.418 49.54 223.418 47.9C223.418 46.18 222.878 44.84 221.798 43.88C220.758 42.92 219.358 42.14 217.598 41.54C215.838 40.94 213.958 40.3 211.958 39.62C208.718 38.5 206.238 37.06 204.518 35.3C202.838 33.54 201.998 31.2 201.998 28.28C201.958 25.8 202.538 23.68 203.738 21.92C204.978 20.12 206.658 18.74 208.778 17.78C210.898 16.78 213.338 16.28 216.098 16.28C218.898 16.28 221.358 16.78 223.478 17.78C225.638 18.78 227.318 20.18 228.518 21.98C229.758 23.78 230.418 25.92 230.498 28.4H222.278C222.238 26.92 221.658 25.62 220.538 24.5C219.458 23.34 217.938 22.76 215.978 22.76C214.298 22.72 212.878 23.14 211.718 24.02C210.598 24.86 210.038 26.1 210.038 27.74C210.038 29.14 210.478 30.26 211.358 31.1C212.238 31.9 213.438 32.58 214.958 33.14C216.478 33.7 218.218 34.3 220.178 34.94C222.258 35.66 224.158 36.5 225.878 37.46C227.598 38.42 228.978 39.7 230.018 41.3C231.058 42.86 231.578 44.88 231.578 47.36C231.578 49.56 231.018 51.6 229.898 53.48C228.778 55.36 227.118 56.88 224.918 58.04C222.718 59.16 220.018 59.72 216.818 59.72ZM251.359 59C248.239 59 245.739 58.24 243.859 56.72C241.979 55.2 241.039 52.5 241.039 48.62V35.66H235.939V29.24H241.039L241.939 21.26H248.719V29.24H256.759V35.66H248.719V48.68C248.719 50.12 249.019 51.12 249.619 51.68C250.259 52.2 251.339 52.46 252.859 52.46H256.579V59H251.359ZM267.073 72.2L273.973 57.02H272.173L260.593 29.24H268.933L277.273 50.18L285.973 29.24H294.133L275.233 72.2H267.073ZM299.154 59V15.8H306.834V59H299.154ZM318.821 24.62C317.421 24.62 316.261 24.2 315.341 23.36C314.461 22.52 314.021 21.46 314.021 20.18C314.021 18.9 314.461 17.86 315.341 17.06C316.261 16.22 317.421 15.8 318.821 15.8C320.221 15.8 321.361 16.22 322.241 17.06C323.161 17.86 323.621 18.9 323.621 20.18C323.621 21.46 323.161 22.52 322.241 23.36C321.361 24.2 320.221 24.62 318.821 24.62ZM314.981 59V29.24H322.661V59H314.981ZM343.937 59C340.817 59 338.317 58.24 336.437 56.72C334.557 55.2 333.617 52.5 333.617 48.62V35.66H328.517V29.24H333.617L334.517 21.26H341.297V29.24H349.337V35.66H341.297V48.68C341.297 50.12 341.597 51.12 342.197 51.68C342.837 52.2 343.917 52.46 345.437 52.46H349.157V59H343.937ZM360.071 24.62C358.671 24.62 357.511 24.2 356.591 23.36C355.711 22.52 355.271 21.46 355.271 20.18C355.271 18.9 355.711 17.86 356.591 17.06C357.511 16.22 358.671 15.8 360.071 15.8C361.471 15.8 362.611 16.22 363.491 17.06C364.411 17.86 364.871 18.9 364.871 20.18C364.871 21.46 364.411 22.52 363.491 23.36C362.611 24.2 361.471 24.62 360.071 24.62ZM356.231 59V29.24H363.911V59H356.231ZM369.107 59L379.907 44.12L369.107 29.24H377.327L384.887 39.8L392.387 29.24H400.667L389.807 44.12L400.667 59H392.387L384.887 48.44L377.327 59H369.107Z" fill="white"/>
</svg>
