<svg width="36" height="50" viewBox="0 0 36 50" fill="none" xmlns="http://www.w3.org/2000/svg">
<path d="M25.3238 48.0066L2.59259 26.3534C-0.197529 23.6956 -0.197529 19.3767 2.59259 16.7189L35.438 48.0066C32.6274 50.6644 28.1139 50.6644 25.3238 48.0066Z" fill="#A6BCFA"/>
<path d="M29.2604 17.3176C30.1081 18.1326 32.919 20.2776 35.4399 20.2776V7.4722C35.4399 3.35389 31.9597 0.00775339 27.6764 0.00775339V5.45594L25.2225 3.09649C23.3486 1.29473 20.8723 0.115001 18.2399 0.00775339C15.362 -0.0994945 12.6181 0.908636 10.6103 2.86055C6.63934 6.67857 6.63934 12.8775 10.6103 16.6955L29.2827 34.6488C32.3167 31.7317 32.3167 26.9913 29.2827 24.0742L16.0982 11.3975C15.0943 10.4322 15.1613 8.84498 16.2767 7.96554C17.2583 7.19336 18.7083 7.36496 19.5784 8.22294" fill="white"/>
</svg>
