<svg width="1440" height="1024" viewBox="0 0 1440 1024" fill="none" xmlns="http://www.w3.org/2000/svg">
<g clip-path="url(#clip0_176_6)">
<rect width="1440" height="1024" fill="black"/>
<g opacity="0.2">
<path d="M528.513 982.879L55.5407 532.337C-2.51358 477.036 -2.51358 387.172 55.5407 331.871L738.959 982.879C680.478 1038.18 586.567 1038.18 528.513 982.879Z" fill="#A6BCFA"/>
<path d="M610.423 344.329C628.062 361.288 686.548 405.919 739 405.919V139.475C739 53.7847 666.588 -15.8387 577.466 -15.8387V97.5225L526.406 48.4291C487.415 10.9396 435.891 -13.6072 381.118 -15.8387C321.239 -18.0702 264.145 2.9061 222.368 43.5198C139.744 122.962 139.744 251.944 222.368 331.386L610.887 704.942C674.015 644.245 674.015 545.612 610.887 484.914L336.557 221.149C315.669 201.065 317.061 168.039 340.27 149.74C360.694 133.673 390.866 137.244 408.969 155.096" fill="white"/>
</g>
<path d="M402.7 648.3C398.58 648.3 394.94 647.4 391.78 645.6C388.66 643.76 386.22 641.24 384.46 638.04C382.74 634.8 381.88 631.1 381.88 626.94C381.88 622.78 382.74 619.1 384.46 615.9C386.22 612.7 388.66 610.2 391.78 608.4C394.94 606.56 398.58 605.64 402.7 605.64C406.82 605.64 410.44 606.56 413.56 608.4C416.72 610.2 419.18 612.7 420.94 615.9C422.7 619.1 423.58 622.78 423.58 626.94C423.58 631.1 422.7 634.8 420.94 638.04C419.18 641.24 416.72 643.76 413.56 645.6C410.44 647.4 406.82 648.3 402.7 648.3ZM402.7 645.78C406.42 645.78 409.64 645 412.36 643.44C415.08 641.84 417.18 639.62 418.66 636.78C420.14 633.94 420.88 630.66 420.88 626.94C420.88 623.18 420.14 619.9 418.66 617.1C417.18 614.26 415.08 612.06 412.36 610.5C409.64 608.9 406.42 608.1 402.7 608.1C398.98 608.1 395.76 608.9 393.04 610.5C390.32 612.06 388.22 614.26 386.74 617.1C385.26 619.9 384.52 623.18 384.52 626.94C384.52 630.66 385.26 633.94 386.74 636.78C388.22 639.62 390.32 641.84 393.04 643.44C395.76 645 398.98 645.78 402.7 645.78ZM402.76 640.74C400.32 640.74 398.1 640.2 396.1 639.12C394.14 638 392.56 636.42 391.36 634.38C390.2 632.3 389.62 629.8 389.62 626.88C389.62 624 390.2 621.54 391.36 619.5C392.56 617.42 394.14 615.84 396.1 614.76C398.1 613.64 400.32 613.08 402.76 613.08C405.76 613.08 408.38 613.9 410.62 615.54C412.86 617.18 414.34 619.48 415.06 622.44H409.42C408.94 620.88 408.08 619.68 406.84 618.84C405.64 618 404.24 617.58 402.64 617.58C400.52 617.58 398.72 618.36 397.24 619.92C395.76 621.48 395.02 623.82 395.02 626.94C395.02 630.02 395.76 632.36 397.24 633.96C398.72 635.52 400.52 636.3 402.64 636.3C404.32 636.3 405.74 635.88 406.9 635.04C408.06 634.16 408.9 632.96 409.42 631.44H415.06C414.34 634.28 412.86 636.54 410.62 638.22C408.38 639.9 405.76 640.74 402.76 640.74ZM445.78 648V606H452.14V624H472.48V606H478.84V648H472.48V629.22H452.14V648H445.78ZM497.221 648.72C494.701 648.72 492.621 648.3 490.981 647.46C489.341 646.62 488.121 645.52 487.321 644.16C486.521 642.76 486.121 641.24 486.121 639.6C486.121 636.72 487.241 634.44 489.481 632.76C491.721 631.08 494.921 630.24 499.081 630.24H506.881V629.7C506.881 627.38 506.241 625.64 504.961 624.48C503.721 623.32 502.101 622.74 500.101 622.74C498.341 622.74 496.801 623.18 495.481 624.06C494.201 624.9 493.421 626.16 493.141 627.84H486.781C486.981 625.68 487.701 623.84 488.941 622.32C490.221 620.76 491.821 619.58 493.741 618.78C495.701 617.94 497.841 617.52 500.161 617.52C504.321 617.52 507.541 618.62 509.821 620.82C512.101 622.98 513.241 625.94 513.241 629.7V648H507.721L507.181 642.9C506.341 644.54 505.121 645.92 503.521 647.04C501.921 648.16 499.821 648.72 497.221 648.72ZM498.481 643.56C500.201 643.56 501.641 643.16 502.801 642.36C504.001 641.52 504.921 640.42 505.561 639.06C506.241 637.7 506.661 636.2 506.821 634.56H499.741C497.221 634.56 495.421 635 494.341 635.88C493.301 636.76 492.781 637.86 492.781 639.18C492.781 640.54 493.281 641.62 494.281 642.42C495.321 643.18 496.721 643.56 498.481 643.56ZM520.657 648V618.24H526.297L526.837 622.44C527.797 620.92 529.057 619.72 530.617 618.84C532.217 617.96 534.057 617.52 536.137 617.52C540.857 617.52 544.137 619.38 545.977 623.1C547.057 621.38 548.497 620.02 550.297 619.02C552.137 618.02 554.117 617.52 556.237 617.52C559.957 617.52 562.877 618.64 564.997 620.88C567.117 623.12 568.177 626.46 568.177 630.9V648H561.817V631.56C561.817 625.8 559.617 622.92 555.217 622.92C552.977 622.92 551.137 623.76 549.697 625.44C548.297 627.12 547.597 629.52 547.597 632.64V648H541.237V631.56C541.237 625.8 539.017 622.92 534.577 622.92C532.377 622.92 530.557 623.76 529.117 625.44C527.717 627.12 527.017 629.52 527.017 632.64V648H520.657ZM573.638 648V642.84L589.538 623.52H573.878V618.24H596.738V623.4L580.718 642.72H597.038V648H573.638ZM613.647 648.72C611.127 648.72 609.047 648.3 607.407 647.46C605.767 646.62 604.547 645.52 603.747 644.16C602.947 642.76 602.547 641.24 602.547 639.6C602.547 636.72 603.667 634.44 605.907 632.76C608.147 631.08 611.347 630.24 615.507 630.24H623.307V629.7C623.307 627.38 622.667 625.64 621.387 624.48C620.147 623.32 618.527 622.74 616.527 622.74C614.767 622.74 613.227 623.18 611.907 624.06C610.627 624.9 609.847 626.16 609.567 627.84H603.207C603.407 625.68 604.127 623.84 605.367 622.32C606.647 620.76 608.247 619.58 610.167 618.78C612.127 617.94 614.267 617.52 616.587 617.52C620.747 617.52 623.967 618.62 626.247 620.82C628.527 622.98 629.667 625.94 629.667 629.7V648H624.147L623.607 642.9C622.767 644.54 621.547 645.92 619.947 647.04C618.347 648.16 616.247 648.72 613.647 648.72ZM614.907 643.56C616.627 643.56 618.067 643.16 619.227 642.36C620.427 641.52 621.347 640.42 621.987 639.06C622.667 637.7 623.087 636.2 623.247 634.56H616.167C613.647 634.56 611.847 635 610.767 635.88C609.727 636.76 609.207 637.86 609.207 639.18C609.207 640.54 609.707 641.62 610.707 642.42C611.747 643.18 613.147 643.56 614.907 643.56ZM652.44 648V606H666.06C670.98 606 675.02 606.86 678.18 608.58C681.38 610.3 683.74 612.74 685.26 615.9C686.82 619.02 687.6 622.74 687.6 627.06C687.6 631.34 686.82 635.06 685.26 638.22C683.74 641.34 681.38 643.76 678.18 645.48C675.02 647.16 670.98 648 666.06 648H652.44ZM658.8 642.6H665.82C669.62 642.6 672.62 641.98 674.82 640.74C677.06 639.5 678.66 637.72 679.62 635.4C680.62 633.08 681.12 630.3 681.12 627.06C681.12 623.82 680.62 621.02 679.62 618.66C678.66 616.3 677.06 614.5 674.82 613.26C672.62 611.98 669.62 611.34 665.82 611.34H658.8V642.6ZM708.307 648.72C705.387 648.72 702.787 648.08 700.507 646.8C698.267 645.48 696.507 643.66 695.227 641.34C693.947 639.02 693.307 636.32 693.307 633.24C693.307 630.12 693.927 627.38 695.167 625.02C696.447 622.66 698.207 620.82 700.447 619.5C702.727 618.18 705.367 617.52 708.367 617.52C711.287 617.52 713.827 618.18 715.987 619.5C718.147 620.78 719.827 622.5 721.027 624.66C722.227 626.82 722.827 629.2 722.827 631.8C722.827 632.2 722.807 632.64 722.767 633.12C722.767 633.56 722.747 634.06 722.707 634.62H699.547C699.747 637.5 700.687 639.7 702.367 641.22C704.087 642.7 706.067 643.44 708.307 643.44C710.107 643.44 711.607 643.04 712.807 642.24C714.047 641.4 714.967 640.28 715.567 638.88H721.927C721.127 641.68 719.527 644.02 717.127 645.9C714.767 647.78 711.827 648.72 708.307 648.72ZM708.307 622.74C706.187 622.74 704.307 623.38 702.667 624.66C701.027 625.9 700.027 627.78 699.667 630.3H716.467C716.347 627.98 715.527 626.14 714.007 624.78C712.487 623.42 710.587 622.74 708.307 622.74ZM729.426 648V618.24H735.066L735.606 622.44C736.566 620.92 737.826 619.72 739.386 618.84C740.986 617.96 742.826 617.52 744.906 617.52C749.626 617.52 752.906 619.38 754.746 623.1C755.826 621.38 757.266 620.02 759.066 619.02C760.906 618.02 762.886 617.52 765.006 617.52C768.726 617.52 771.646 618.64 773.766 620.88C775.886 623.12 776.946 626.46 776.946 630.9V648H770.586V631.56C770.586 625.8 768.386 622.92 763.986 622.92C761.746 622.92 759.906 623.76 758.466 625.44C757.066 627.12 756.366 629.52 756.366 632.64V648H750.006V631.56C750.006 625.8 747.786 622.92 743.346 622.92C741.146 622.92 739.326 623.76 737.886 625.44C736.486 627.12 735.786 629.52 735.786 632.64V648H729.426ZM784.387 648V618.24H790.027L790.507 623.46C791.427 621.62 792.767 620.18 794.527 619.14C796.327 618.06 798.387 617.52 800.707 617.52C804.307 617.52 807.127 618.64 809.167 620.88C811.247 623.12 812.287 626.46 812.287 630.9V648H805.987V631.56C805.987 625.8 803.627 622.92 798.907 622.92C796.547 622.92 794.587 623.76 793.027 625.44C791.507 627.12 790.747 629.52 790.747 632.64V648H784.387ZM829.858 648.72C827.338 648.72 825.258 648.3 823.618 647.46C821.978 646.62 820.758 645.52 819.958 644.16C819.158 642.76 818.758 641.24 818.758 639.6C818.758 636.72 819.878 634.44 822.118 632.76C824.358 631.08 827.558 630.24 831.718 630.24H839.518V629.7C839.518 627.38 838.878 625.64 837.598 624.48C836.358 623.32 834.738 622.74 832.738 622.74C830.978 622.74 829.438 623.18 828.118 624.06C826.838 624.9 826.058 626.16 825.778 627.84H819.418C819.618 625.68 820.338 623.84 821.578 622.32C822.858 620.76 824.458 619.58 826.378 618.78C828.338 617.94 830.478 617.52 832.798 617.52C836.958 617.52 840.178 618.62 842.458 620.82C844.738 622.98 845.878 625.94 845.878 629.7V648H840.358L839.818 642.9C838.978 644.54 837.758 645.92 836.158 647.04C834.558 648.16 832.458 648.72 829.858 648.72ZM831.118 643.56C832.838 643.56 834.278 643.16 835.438 642.36C836.638 641.52 837.558 640.42 838.198 639.06C838.878 637.7 839.298 636.2 839.458 634.56H832.378C829.858 634.56 828.058 635 826.978 635.88C825.938 636.76 825.418 637.86 825.418 639.18C825.418 640.54 825.918 641.62 826.918 642.42C827.958 643.18 829.358 643.56 831.118 643.56ZM853.293 648V618.24H858.933L859.413 623.46C860.333 621.62 861.673 620.18 863.433 619.14C865.233 618.06 867.293 617.52 869.613 617.52C873.213 617.52 876.033 618.64 878.073 620.88C880.153 623.12 881.193 626.46 881.193 630.9V648H874.893V631.56C874.893 625.8 872.533 622.92 867.813 622.92C865.453 622.92 863.493 623.76 861.933 625.44C860.413 627.12 859.653 629.52 859.653 632.64V648H853.293ZM892.284 612.6C891.084 612.6 890.084 612.24 889.284 611.52C888.524 610.76 888.144 609.82 888.144 608.7C888.144 607.58 888.524 606.66 889.284 605.94C890.084 605.18 891.084 604.8 892.284 604.8C893.484 604.8 894.464 605.18 895.224 605.94C896.024 606.66 896.424 607.58 896.424 608.7C896.424 609.82 896.024 610.76 895.224 611.52C894.464 612.24 893.484 612.6 892.284 612.6ZM889.104 648V618.24H895.464V648H889.104ZM918.377 648V643.44C921.097 641.28 923.697 639.1 926.177 636.9C928.657 634.7 930.857 632.54 932.777 630.42C934.737 628.26 936.277 626.16 937.397 624.12C938.517 622.04 939.077 620.04 939.077 618.12C939.077 616.84 938.857 615.64 938.417 614.52C937.977 613.36 937.257 612.44 936.257 611.76C935.257 611.04 933.917 610.68 932.237 610.68C929.717 610.68 927.817 611.48 926.537 613.08C925.297 614.68 924.697 616.6 924.737 618.84H918.557C918.597 615.88 919.217 613.4 920.417 611.4C921.657 609.4 923.297 607.88 925.337 606.84C927.417 605.8 929.757 605.28 932.357 605.28C936.317 605.28 939.477 606.4 941.837 608.64C944.237 610.84 945.437 613.92 945.437 617.88C945.437 620.24 944.857 622.58 943.697 624.9C942.577 627.22 941.097 629.46 939.257 631.62C937.457 633.74 935.517 635.74 933.437 637.62C931.357 639.5 929.377 641.2 927.497 642.72H946.697V648H918.377ZM969.884 648.72C966.084 648.72 962.804 647.82 960.044 646.02C957.324 644.18 955.224 641.64 953.744 638.4C952.304 635.12 951.584 631.32 951.584 627C951.584 622.68 952.304 618.9 953.744 615.66C955.224 612.38 957.324 609.84 960.044 608.04C962.804 606.2 966.084 605.28 969.884 605.28C973.684 605.28 976.944 606.2 979.664 608.04C982.384 609.84 984.464 612.38 985.904 615.66C987.384 618.9 988.124 622.68 988.124 627C988.124 631.32 987.384 635.12 985.904 638.4C984.464 641.64 982.384 644.18 979.664 646.02C976.944 647.82 973.684 648.72 969.884 648.72ZM969.884 643.02C972.164 643.02 974.184 642.38 975.944 641.1C977.744 639.82 979.144 637.98 980.144 635.58C981.144 633.18 981.644 630.32 981.644 627C981.644 623.68 981.144 620.82 980.144 618.42C979.144 616.02 977.744 614.18 975.944 612.9C974.184 611.62 972.164 610.98 969.884 610.98C967.564 610.98 965.524 611.62 963.764 612.9C962.004 614.18 960.624 616.02 959.624 618.42C958.624 620.82 958.124 623.68 958.124 627C958.124 630.32 958.624 633.18 959.624 635.58C960.624 637.98 962.004 639.82 963.764 641.1C965.524 642.38 967.564 643.02 969.884 643.02ZM993.904 648V643.44C996.624 641.28 999.224 639.1 1001.7 636.9C1004.18 634.7 1006.38 632.54 1008.3 630.42C1010.26 628.26 1011.8 626.16 1012.92 624.12C1014.04 622.04 1014.6 620.04 1014.6 618.12C1014.6 616.84 1014.38 615.64 1013.94 614.52C1013.5 613.36 1012.78 612.44 1011.78 611.76C1010.78 611.04 1009.44 610.68 1007.76 610.68C1005.24 610.68 1003.34 611.48 1002.06 613.08C1000.82 614.68 1000.22 616.6 1000.26 618.84H994.084C994.124 615.88 994.744 613.4 995.944 611.4C997.184 609.4 998.824 607.88 1000.86 606.84C1002.94 605.8 1005.28 605.28 1007.88 605.28C1011.84 605.28 1015 606.4 1017.36 608.64C1019.76 610.84 1020.96 613.92 1020.96 617.88C1020.96 620.24 1020.38 622.58 1019.22 624.9C1018.1 627.22 1016.62 629.46 1014.78 631.62C1012.98 633.74 1011.04 635.74 1008.96 637.62C1006.88 639.5 1004.9 641.2 1003.02 642.72H1022.22V648H993.904ZM1042.52 648.72C1039.8 648.72 1037.32 648.24 1035.08 647.28C1032.88 646.28 1031.12 644.78 1029.8 642.78C1028.48 640.78 1027.78 638.28 1027.7 635.28H1034C1034.08 637.52 1034.84 639.42 1036.28 640.98C1037.76 642.5 1039.84 643.26 1042.52 643.26C1045.08 643.26 1047.04 642.56 1048.4 641.16C1049.76 639.72 1050.44 637.94 1050.44 635.82C1050.44 633.26 1049.52 631.36 1047.68 630.12C1045.88 628.88 1043.66 628.26 1041.02 628.26H1037.9V622.98H1041.08C1043.44 622.98 1045.34 622.42 1046.78 621.3C1048.26 620.18 1049 618.6 1049 616.56C1049 614.84 1048.42 613.44 1047.26 612.36C1046.14 611.28 1044.54 610.74 1042.46 610.74C1040.3 610.74 1038.6 611.38 1037.36 612.66C1036.12 613.9 1035.44 615.46 1035.32 617.34H1029.02C1029.1 614.9 1029.7 612.78 1030.82 610.98C1031.98 609.18 1033.56 607.78 1035.56 606.78C1037.56 605.78 1039.86 605.28 1042.46 605.28C1045.26 605.28 1047.6 605.78 1049.48 606.78C1051.4 607.74 1052.84 609.06 1053.8 610.74C1054.8 612.38 1055.3 614.18 1055.3 616.14C1055.3 618.38 1054.68 620.34 1053.44 622.02C1052.2 623.7 1050.54 624.82 1048.46 625.38C1050.86 625.9 1052.84 627.08 1054.4 628.92C1055.96 630.72 1056.74 633.06 1056.74 635.94C1056.74 638.26 1056.2 640.4 1055.12 642.36C1054.04 644.28 1052.44 645.82 1050.32 646.98C1048.2 648.14 1045.6 648.72 1042.52 648.72Z" fill="#E0E0E0"/>
<path d="M203.295 565.027L112.37 478.413C101.21 467.782 101.21 450.507 112.37 439.875L243.752 565.027C232.51 575.658 214.456 575.658 203.295 565.027Z" fill="#A6BCFA"/>
<path d="M219.042 442.27C222.433 445.531 233.677 454.111 243.76 454.111V402.889C243.76 386.416 229.839 373.031 212.706 373.031V394.824L202.891 385.386C195.395 378.179 185.49 373.46 174.96 373.031C163.449 372.602 152.473 376.635 144.442 384.442C128.558 399.714 128.558 424.51 144.442 439.782L219.131 511.595C231.267 499.927 231.267 480.965 219.131 469.297L166.393 418.59C162.378 414.729 162.646 408.38 167.107 404.862C171.034 401.773 176.834 402.46 180.314 405.892" fill="white"/>
<path d="M346.118 534V427.734H309.806V409.4H405.392V427.734H368.902V534H346.118ZM448.642 536.136C439.742 536.136 431.85 534.237 424.968 530.44C418.085 526.643 412.686 521.303 408.77 514.42C404.854 507.537 402.896 499.587 402.896 490.568C402.896 481.431 404.794 473.302 408.592 466.182C412.508 459.062 417.848 453.544 424.612 449.628C431.494 445.593 439.564 443.576 448.82 443.576C457.482 443.576 465.136 445.475 471.782 449.272C478.427 453.069 483.589 458.291 487.268 464.936C491.065 471.463 492.964 478.761 492.964 486.83C492.964 488.135 492.904 489.5 492.786 490.924C492.786 492.348 492.726 493.831 492.608 495.374H425.502C425.976 502.257 428.35 507.656 432.622 511.572C437.012 515.488 442.293 517.446 448.464 517.446C453.092 517.446 456.948 516.437 460.034 514.42C463.238 512.284 465.611 509.555 467.154 506.232H490.294C488.632 511.809 485.844 516.912 481.928 521.54C478.13 526.049 473.384 529.609 467.688 532.22C462.11 534.831 455.762 536.136 448.642 536.136ZM448.82 462.088C443.242 462.088 438.318 463.69 434.046 466.894C429.774 469.979 427.044 474.726 425.858 481.134H469.824C469.468 475.319 467.332 470.691 463.416 467.25C459.5 463.809 454.634 462.088 448.82 462.088ZM555.381 536.136C546.362 536.136 538.411 534.178 531.529 530.262C524.646 526.346 519.187 520.887 515.153 513.886C511.237 506.885 509.279 498.875 509.279 489.856C509.279 480.837 511.237 472.827 515.153 465.826C519.187 458.825 524.646 453.366 531.529 449.45C538.411 445.534 546.362 443.576 555.381 443.576C566.654 443.576 576.147 446.543 583.861 452.476C591.574 458.291 596.499 466.36 598.635 476.684H574.605C573.418 472.412 571.045 469.089 567.485 466.716C564.043 464.224 559.949 462.978 555.203 462.978C548.913 462.978 543.573 465.351 539.183 470.098C534.792 474.845 532.597 481.431 532.597 489.856C532.597 498.281 534.792 504.867 539.183 509.614C543.573 514.361 548.913 516.734 555.203 516.734C559.949 516.734 564.043 515.547 567.485 513.174C571.045 510.801 573.418 507.419 574.605 503.028H598.635C596.499 512.996 591.574 521.006 583.861 527.058C576.147 533.11 566.654 536.136 555.381 536.136ZM618.857 534V405.84H641.641V459.24C644.608 454.375 648.583 450.577 653.567 447.848C658.67 445 664.484 443.576 671.011 443.576C681.928 443.576 690.354 447.017 696.287 453.9C702.339 460.783 705.365 470.869 705.365 484.16V534H682.759V486.296C682.759 478.701 681.216 472.887 678.131 468.852C675.164 464.817 670.418 462.8 663.891 462.8C657.483 462.8 652.143 465.055 647.871 469.564C643.718 474.073 641.641 480.363 641.641 488.432V534H618.857Z" fill="#A6BCFA"/>
<path d="M770.228 536.136C761.091 536.136 753.021 534.593 746.02 531.508C739.019 528.304 733.501 523.795 729.466 517.98C725.431 512.047 723.355 504.867 723.236 496.442H747.266C747.503 502.257 749.58 507.181 753.496 511.216C757.531 515.132 763.049 517.09 770.05 517.09C776.102 517.09 780.908 515.666 784.468 512.818C788.028 509.851 789.808 505.935 789.808 501.07C789.808 495.967 788.206 491.992 785.002 489.144C781.917 486.296 777.763 483.982 772.542 482.202C767.321 480.422 761.743 478.523 755.81 476.506C746.198 473.183 738.841 468.911 733.738 463.69C728.754 458.469 726.262 451.527 726.262 442.864C726.143 435.507 727.864 429.217 731.424 423.996C735.103 418.656 740.087 414.562 746.376 411.714C752.665 408.747 759.904 407.264 768.092 407.264C776.399 407.264 783.697 408.747 789.986 411.714C796.394 414.681 801.378 418.834 804.938 424.174C808.617 429.514 810.575 435.863 810.812 443.22H786.426C786.307 438.829 784.587 434.973 781.264 431.65C778.06 428.209 773.551 426.488 767.736 426.488C762.752 426.369 758.539 427.615 755.098 430.226C751.775 432.718 750.114 436.397 750.114 441.262C750.114 445.415 751.419 448.738 754.03 451.23C756.641 453.603 760.201 455.621 764.71 457.282C769.219 458.943 774.381 460.723 780.196 462.622C786.367 464.758 792.003 467.25 797.106 470.098C802.209 472.946 806.303 476.743 809.388 481.49C812.473 486.118 814.016 492.111 814.016 499.468C814.016 505.995 812.355 512.047 809.032 517.624C805.709 523.201 800.785 527.711 794.258 531.152C787.731 534.475 779.721 536.136 770.228 536.136ZM872.699 534C863.443 534 856.026 531.745 850.449 527.236C844.872 522.727 842.083 514.717 842.083 503.206V464.758H826.953V445.712H842.083L844.753 422.038H864.867V445.712H888.719V464.758H864.867V503.384C864.867 507.656 865.757 510.623 867.537 512.284C869.436 513.827 872.64 514.598 877.149 514.598H888.185V534H872.699ZM919.317 573.16L939.787 528.126H934.447L900.093 445.712H924.835L949.577 507.834L975.387 445.712H999.595L943.525 573.16H919.317ZM1014.49 534V405.84H1037.27V534H1014.49ZM1072.84 432.006C1068.68 432.006 1065.24 430.76 1062.51 428.268C1059.9 425.776 1058.6 422.631 1058.6 418.834C1058.6 415.037 1059.9 411.951 1062.51 409.578C1065.24 407.086 1068.68 405.84 1072.84 405.84C1076.99 405.84 1080.37 407.086 1082.98 409.578C1085.71 411.951 1087.08 415.037 1087.08 418.834C1087.08 422.631 1085.71 425.776 1082.98 428.268C1080.37 430.76 1076.99 432.006 1072.84 432.006ZM1061.44 534V445.712H1084.23V534H1061.44ZM1147.35 534C1138.09 534 1130.67 531.745 1125.1 527.236C1119.52 522.727 1116.73 514.717 1116.73 503.206V464.758H1101.6V445.712H1116.73L1119.4 422.038H1139.52V445.712H1163.37V464.758H1139.52V503.384C1139.52 507.656 1140.41 510.623 1142.19 512.284C1144.08 513.827 1147.29 514.598 1151.8 514.598H1162.83V534H1147.35ZM1195.21 432.006C1191.06 432.006 1187.62 430.76 1184.89 428.268C1182.28 425.776 1180.97 422.631 1180.97 418.834C1180.97 415.037 1182.28 411.951 1184.89 409.578C1187.62 407.086 1191.06 405.84 1195.21 405.84C1199.36 405.84 1202.75 407.086 1205.36 409.578C1208.09 411.951 1209.45 415.037 1209.45 418.834C1209.45 422.631 1208.09 425.776 1205.36 428.268C1202.75 430.76 1199.36 432.006 1195.21 432.006ZM1183.82 534V445.712H1206.6V534H1183.82ZM1222.02 534L1254.06 489.856L1222.02 445.712H1246.4L1268.83 477.04L1291.08 445.712H1315.65L1283.43 489.856L1315.65 534H1291.08L1268.83 502.672L1246.4 534H1222.02Z" fill="white"/>
</g>
<defs>
<clipPath id="clip0_176_6">
<rect width="1440" height="1024" fill="white"/>
</clipPath>
</defs>
</svg>
