<svg width="1200" height="630" viewBox="0 0 1200 630" fill="none" xmlns="http://www.w3.org/2000/svg">
<g clip-path="url(#clip0_180_5)">
<rect width="1200" height="630" fill="black"/>
<g opacity="0.2">
<path d="M304.29 654.797L-33.8698 332.674C-75.3768 293.136 -75.3768 228.885 -33.8698 189.347L454.753 654.797C412.941 694.336 345.797 694.336 304.29 654.797Z" fill="#A6BCFA"/>
<path d="M363.071 203.624C375.682 215.749 417.498 247.659 455 247.659V57.1598C455 -4.1061 403.228 -53.8847 339.508 -53.8847V27.165L303.002 -7.93522C275.124 -34.7391 238.286 -52.2892 199.125 -53.8847C156.313 -55.4801 115.493 -40.4827 85.6243 -11.4452C26.5507 45.3534 26.5507 137.571 85.6243 194.37L363.403 461.451C408.538 418.054 408.538 347.535 363.403 304.138L167.265 115.554C152.331 101.195 153.327 77.5818 169.92 64.499C184.523 53.0116 206.094 55.5643 219.038 68.3281" fill="white"/>
</g>
<path d="M446.455 394.145C444.464 394.145 442.704 393.71 441.177 392.84C439.669 391.951 438.49 390.733 437.639 389.186C436.808 387.62 436.392 385.832 436.392 383.821C436.392 381.81 436.808 380.032 437.639 378.485C438.49 376.938 439.669 375.73 441.177 374.86C442.704 373.971 444.464 373.526 446.455 373.526C448.446 373.526 450.196 373.971 451.704 374.86C453.231 375.73 454.42 376.938 455.271 378.485C456.122 380.032 456.547 381.81 456.547 383.821C456.547 385.832 456.122 387.62 455.271 389.186C454.42 390.733 453.231 391.951 451.704 392.84C450.196 393.71 448.446 394.145 446.455 394.145ZM446.455 392.927C448.253 392.927 449.809 392.55 451.124 391.796C452.439 391.023 453.454 389.95 454.169 388.577C454.884 387.204 455.242 385.619 455.242 383.821C455.242 382.004 454.884 380.418 454.169 379.065C453.454 377.692 452.439 376.629 451.124 375.875C449.809 375.102 448.253 374.715 446.455 374.715C444.657 374.715 443.101 375.102 441.786 375.875C440.471 376.629 439.456 377.692 438.741 379.065C438.026 380.418 437.668 382.004 437.668 383.821C437.668 385.619 438.026 387.204 438.741 388.577C439.456 389.95 440.471 391.023 441.786 391.796C443.101 392.55 444.657 392.927 446.455 392.927ZM446.484 390.491C445.305 390.491 444.232 390.23 443.265 389.708C442.318 389.167 441.554 388.403 440.974 387.417C440.413 386.412 440.133 385.203 440.133 383.792C440.133 382.4 440.413 381.211 440.974 380.225C441.554 379.22 442.318 378.456 443.265 377.934C444.232 377.393 445.305 377.122 446.484 377.122C447.934 377.122 449.2 377.518 450.283 378.311C451.366 379.104 452.081 380.215 452.429 381.646H449.703C449.471 380.892 449.055 380.312 448.456 379.906C447.876 379.5 447.199 379.297 446.426 379.297C445.401 379.297 444.531 379.674 443.816 380.428C443.101 381.182 442.743 382.313 442.743 383.821C442.743 385.31 443.101 386.441 443.816 387.214C444.531 387.968 445.401 388.345 446.426 388.345C447.238 388.345 447.924 388.142 448.485 387.736C449.046 387.311 449.452 386.731 449.703 385.996H452.429C452.081 387.369 451.366 388.461 450.283 389.273C449.2 390.085 447.934 390.491 446.484 390.491ZM467.277 394V373.7H470.351V382.4H480.182V373.7H483.256V394H480.182V384.923H470.351V394H467.277ZM492.14 394.348C490.922 394.348 489.917 394.145 489.124 393.739C488.332 393.333 487.742 392.801 487.355 392.144C486.969 391.467 486.775 390.733 486.775 389.94C486.775 388.548 487.317 387.446 488.399 386.634C489.482 385.822 491.029 385.416 493.039 385.416H496.809V385.155C496.809 384.034 496.5 383.193 495.881 382.632C495.282 382.071 494.499 381.791 493.532 381.791C492.682 381.791 491.937 382.004 491.299 382.429C490.681 382.835 490.304 383.444 490.168 384.256H487.094C487.191 383.212 487.539 382.323 488.138 381.588C488.757 380.834 489.53 380.264 490.458 379.877C491.406 379.471 492.44 379.268 493.561 379.268C495.572 379.268 497.128 379.8 498.23 380.863C499.332 381.907 499.883 383.338 499.883 385.155V394H497.215L496.954 391.535C496.548 392.328 495.959 392.995 495.185 393.536C494.412 394.077 493.397 394.348 492.14 394.348ZM492.749 391.854C493.581 391.854 494.277 391.661 494.837 391.274C495.417 390.868 495.862 390.336 496.171 389.679C496.5 389.022 496.703 388.297 496.78 387.504H493.358C492.14 387.504 491.27 387.717 490.748 388.142C490.246 388.567 489.994 389.099 489.994 389.737C489.994 390.394 490.236 390.916 490.719 391.303C491.222 391.67 491.899 391.854 492.749 391.854ZM503.467 394V379.616H506.193L506.454 381.646C506.918 380.911 507.527 380.331 508.281 379.906C509.055 379.481 509.944 379.268 510.949 379.268C513.231 379.268 514.816 380.167 515.705 381.965C516.227 381.134 516.923 380.476 517.793 379.993C518.683 379.51 519.64 379.268 520.664 379.268C522.462 379.268 523.874 379.809 524.898 380.892C525.923 381.975 526.435 383.589 526.435 385.735V394H523.361V386.054C523.361 383.27 522.298 381.878 520.171 381.878C519.089 381.878 518.199 382.284 517.503 383.096C516.827 383.908 516.488 385.068 516.488 386.576V394H513.414V386.054C513.414 383.27 512.341 381.878 510.195 381.878C509.132 381.878 508.252 382.284 507.556 383.096C506.88 383.908 506.541 385.068 506.541 386.576V394H503.467ZM529.075 394V391.506L536.76 382.168H529.191V379.616H540.24V382.11L532.497 391.448H540.385V394H529.075ZM548.413 394.348C547.195 394.348 546.189 394.145 545.397 393.739C544.604 393.333 544.014 392.801 543.628 392.144C543.241 391.467 543.048 390.733 543.048 389.94C543.048 388.548 543.589 387.446 544.672 386.634C545.754 385.822 547.301 385.416 549.312 385.416H553.082V385.155C553.082 384.034 552.772 383.193 552.154 382.632C551.554 382.071 550.771 381.791 549.805 381.791C548.954 381.791 548.21 382.004 547.572 382.429C546.953 382.835 546.576 383.444 546.441 384.256H543.367C543.463 383.212 543.811 382.323 544.411 381.588C545.029 380.834 545.803 380.264 546.731 379.877C547.678 379.471 548.712 379.268 549.834 379.268C551.844 379.268 553.401 379.8 554.503 380.863C555.605 381.907 556.156 383.338 556.156 385.155V394H553.488L553.227 391.535C552.821 392.328 552.231 392.995 551.458 393.536C550.684 394.077 549.669 394.348 548.413 394.348ZM549.022 391.854C549.853 391.854 550.549 391.661 551.11 391.274C551.69 390.868 552.134 390.336 552.444 389.679C552.772 389.022 552.975 388.297 553.053 387.504H549.631C548.413 387.504 547.543 387.717 547.021 388.142C546.518 388.567 546.267 389.099 546.267 389.737C546.267 390.394 546.508 390.916 546.992 391.303C547.494 391.67 548.171 391.854 549.022 391.854ZM567.163 394V373.7H573.746C576.124 373.7 578.076 374.116 579.604 374.947C581.15 375.778 582.291 376.958 583.026 378.485C583.78 379.993 584.157 381.791 584.157 383.879C584.157 385.948 583.78 387.746 583.026 389.273C582.291 390.781 581.15 391.951 579.604 392.782C578.076 393.594 576.124 394 573.746 394H567.163ZM570.237 391.39H573.63C575.466 391.39 576.916 391.09 577.98 390.491C579.062 389.892 579.836 389.031 580.3 387.91C580.783 386.789 581.025 385.445 581.025 383.879C581.025 382.313 580.783 380.96 580.3 379.819C579.836 378.678 579.062 377.808 577.98 377.209C576.916 376.59 575.466 376.281 573.63 376.281H570.237V391.39ZM594.165 394.348C592.754 394.348 591.497 394.039 590.395 393.42C589.312 392.782 588.462 391.902 587.843 390.781C587.224 389.66 586.915 388.355 586.915 386.866C586.915 385.358 587.215 384.034 587.814 382.893C588.433 381.752 589.283 380.863 590.366 380.225C591.468 379.587 592.744 379.268 594.194 379.268C595.605 379.268 596.833 379.587 597.877 380.225C598.921 380.844 599.733 381.675 600.313 382.719C600.893 383.763 601.183 384.913 601.183 386.17C601.183 386.363 601.173 386.576 601.154 386.808C601.154 387.021 601.144 387.262 601.125 387.533H589.931C590.028 388.925 590.482 389.988 591.294 390.723C592.125 391.438 593.082 391.796 594.165 391.796C595.035 391.796 595.76 391.603 596.34 391.216C596.939 390.81 597.384 390.269 597.674 389.592H600.748C600.361 390.945 599.588 392.076 598.428 392.985C597.287 393.894 595.866 394.348 594.165 394.348ZM594.165 381.791C593.14 381.791 592.232 382.1 591.439 382.719C590.646 383.318 590.163 384.227 589.989 385.445H598.109C598.051 384.324 597.655 383.434 596.92 382.777C596.185 382.12 595.267 381.791 594.165 381.791ZM604.373 394V379.616H607.099L607.36 381.646C607.824 380.911 608.433 380.331 609.187 379.906C609.96 379.481 610.849 379.268 611.855 379.268C614.136 379.268 615.721 380.167 616.611 381.965C617.133 381.134 617.829 380.476 618.699 379.993C619.588 379.51 620.545 379.268 621.57 379.268C623.368 379.268 624.779 379.809 625.804 380.892C626.828 381.975 627.341 383.589 627.341 385.735V394H624.267V386.054C624.267 383.27 623.203 381.878 621.077 381.878C619.994 381.878 619.105 382.284 618.409 383.096C617.732 383.908 617.394 385.068 617.394 386.576V394H614.32V386.054C614.32 383.27 613.247 381.878 611.101 381.878C610.037 381.878 609.158 382.284 608.462 383.096C607.785 383.908 607.447 385.068 607.447 386.576V394H604.373ZM630.937 394V379.616H633.663L633.895 382.139C634.34 381.25 634.987 380.554 635.838 380.051C636.708 379.529 637.704 379.268 638.825 379.268C640.565 379.268 641.928 379.809 642.914 380.892C643.919 381.975 644.422 383.589 644.422 385.735V394H641.377V386.054C641.377 383.27 640.236 381.878 637.955 381.878C636.814 381.878 635.867 382.284 635.113 383.096C634.378 383.908 634.011 385.068 634.011 386.576V394H630.937ZM652.915 394.348C651.697 394.348 650.691 394.145 649.899 393.739C649.106 393.333 648.516 392.801 648.13 392.144C647.743 391.467 647.55 390.733 647.55 389.94C647.55 388.548 648.091 387.446 649.174 386.634C650.256 385.822 651.803 385.416 653.814 385.416H657.584V385.155C657.584 384.034 657.274 383.193 656.656 382.632C656.056 382.071 655.273 381.791 654.307 381.791C653.456 381.791 652.712 382.004 652.074 382.429C651.455 382.835 651.078 383.444 650.943 384.256H647.869C647.965 383.212 648.313 382.323 648.913 381.588C649.531 380.834 650.305 380.264 651.233 379.877C652.18 379.471 653.214 379.268 654.336 379.268C656.346 379.268 657.903 379.8 659.005 380.863C660.107 381.907 660.658 383.338 660.658 385.155V394H657.99L657.729 391.535C657.323 392.328 656.733 392.995 655.96 393.536C655.186 394.077 654.171 394.348 652.915 394.348ZM653.524 391.854C654.355 391.854 655.051 391.661 655.612 391.274C656.192 390.868 656.636 390.336 656.946 389.679C657.274 389.022 657.477 388.297 657.555 387.504H654.133C652.915 387.504 652.045 387.717 651.523 388.142C651.02 388.567 650.769 389.099 650.769 389.737C650.769 390.394 651.01 390.916 651.494 391.303C651.996 391.67 652.673 391.854 653.524 391.854ZM664.242 394V379.616H666.968L667.2 382.139C667.644 381.25 668.292 380.554 669.143 380.051C670.013 379.529 671.008 379.268 672.13 379.268C673.87 379.268 675.233 379.809 676.219 380.892C677.224 381.975 677.727 383.589 677.727 385.735V394H674.682V386.054C674.682 383.27 673.541 381.878 671.26 381.878C670.119 381.878 669.172 382.284 668.418 383.096C667.683 383.908 667.316 385.068 667.316 386.576V394H664.242ZM683.087 376.89C682.507 376.89 682.024 376.716 681.637 376.368C681.27 376.001 681.086 375.546 681.086 375.005C681.086 374.464 681.27 374.019 681.637 373.671C682.024 373.304 682.507 373.12 683.087 373.12C683.667 373.12 684.141 373.304 684.508 373.671C684.895 374.019 685.088 374.464 685.088 375.005C685.088 375.546 684.895 376.001 684.508 376.368C684.141 376.716 683.667 376.89 683.087 376.89ZM681.55 394V379.616H684.624V394H681.55ZM695.699 394V391.796C697.014 390.752 698.27 389.698 699.469 388.635C700.668 387.572 701.731 386.528 702.659 385.503C703.606 384.459 704.351 383.444 704.892 382.458C705.433 381.453 705.704 380.486 705.704 379.558C705.704 378.939 705.598 378.359 705.385 377.818C705.172 377.257 704.824 376.813 704.341 376.484C703.858 376.136 703.21 375.962 702.398 375.962C701.18 375.962 700.262 376.349 699.643 377.122C699.044 377.895 698.754 378.823 698.773 379.906H695.786C695.805 378.475 696.105 377.277 696.685 376.31C697.284 375.343 698.077 374.609 699.063 374.106C700.068 373.603 701.199 373.352 702.456 373.352C704.37 373.352 705.897 373.893 707.038 374.976C708.198 376.039 708.778 377.528 708.778 379.442C708.778 380.583 708.498 381.714 707.937 382.835C707.396 383.956 706.68 385.039 705.791 386.083C704.921 387.108 703.983 388.074 702.978 388.983C701.973 389.892 701.016 390.713 700.107 391.448H709.387V394H695.699ZM720.594 394.348C718.757 394.348 717.172 393.913 715.838 393.043C714.523 392.154 713.508 390.926 712.793 389.36C712.097 387.775 711.749 385.938 711.749 383.85C711.749 381.762 712.097 379.935 712.793 378.369C713.508 376.784 714.523 375.556 715.838 374.686C717.172 373.797 718.757 373.352 720.594 373.352C722.431 373.352 724.006 373.797 725.321 374.686C726.636 375.556 727.641 376.784 728.337 378.369C729.052 379.935 729.41 381.762 729.41 383.85C729.41 385.938 729.052 387.775 728.337 389.36C727.641 390.926 726.636 392.154 725.321 393.043C724.006 393.913 722.431 394.348 720.594 394.348ZM720.594 391.593C721.696 391.593 722.672 391.284 723.523 390.665C724.393 390.046 725.07 389.157 725.553 387.997C726.036 386.837 726.278 385.455 726.278 383.85C726.278 382.245 726.036 380.863 725.553 379.703C725.07 378.543 724.393 377.654 723.523 377.035C722.672 376.416 721.696 376.107 720.594 376.107C719.473 376.107 718.487 376.416 717.636 377.035C716.785 377.654 716.118 378.543 715.635 379.703C715.152 380.863 714.91 382.245 714.91 383.85C714.91 385.455 715.152 386.837 715.635 387.997C716.118 389.157 716.785 390.046 717.636 390.665C718.487 391.284 719.473 391.593 720.594 391.593ZM732.204 394V391.796C733.518 390.752 734.775 389.698 735.974 388.635C737.172 387.572 738.236 386.528 739.164 385.503C740.111 384.459 740.855 383.444 741.397 382.458C741.938 381.453 742.209 380.486 742.209 379.558C742.209 378.939 742.102 378.359 741.89 377.818C741.677 377.257 741.329 376.813 740.846 376.484C740.362 376.136 739.715 375.962 738.903 375.962C737.685 375.962 736.766 376.349 736.148 377.122C735.548 377.895 735.258 378.823 735.278 379.906H732.291C732.31 378.475 732.61 377.277 733.19 376.31C733.789 375.343 734.582 374.609 735.568 374.106C736.573 373.603 737.704 373.352 738.961 373.352C740.875 373.352 742.402 373.893 743.543 374.976C744.703 376.039 745.283 377.528 745.283 379.442C745.283 380.583 745.002 381.714 744.442 382.835C743.9 383.956 743.185 385.039 742.296 386.083C741.426 387.108 740.488 388.074 739.483 388.983C738.477 389.892 737.52 390.713 736.612 391.448H745.892V394H732.204ZM755.701 394.348C754.387 394.348 753.188 394.116 752.105 393.652C751.042 393.169 750.191 392.444 749.553 391.477C748.915 390.51 748.577 389.302 748.538 387.852H751.583C751.622 388.935 751.989 389.853 752.685 390.607C753.401 391.342 754.406 391.709 755.701 391.709C756.939 391.709 757.886 391.371 758.543 390.694C759.201 389.998 759.529 389.138 759.529 388.113C759.529 386.876 759.085 385.957 758.195 385.358C757.325 384.759 756.252 384.459 754.976 384.459H753.468V381.907H755.005C756.146 381.907 757.064 381.636 757.76 381.095C758.476 380.554 758.833 379.79 758.833 378.804C758.833 377.973 758.553 377.296 757.992 376.774C757.451 376.252 756.678 375.991 755.672 375.991C754.628 375.991 753.807 376.3 753.207 376.919C752.608 377.518 752.279 378.272 752.221 379.181H749.176C749.215 378.002 749.505 376.977 750.046 376.107C750.607 375.237 751.371 374.56 752.337 374.077C753.304 373.594 754.416 373.352 755.672 373.352C757.026 373.352 758.157 373.594 759.065 374.077C759.993 374.541 760.689 375.179 761.153 375.991C761.637 376.784 761.878 377.654 761.878 378.601C761.878 379.684 761.579 380.631 760.979 381.443C760.38 382.255 759.578 382.796 758.572 383.067C759.732 383.318 760.689 383.889 761.443 384.778C762.197 385.648 762.574 386.779 762.574 388.171C762.574 389.292 762.313 390.327 761.791 391.274C761.269 392.202 760.496 392.946 759.471 393.507C758.447 394.068 757.19 394.348 755.701 394.348Z" fill="#E0E0E0"/>
<path d="M297.185 334.804L254.893 294.518C249.702 289.573 249.702 281.538 254.893 276.593L316.003 334.804C310.773 339.749 302.376 339.749 297.185 334.804Z" fill="#A6BCFA"/>
<path d="M304.509 277.707C306.086 279.223 311.316 283.214 316.006 283.214V259.389C316.006 251.727 309.531 245.502 301.562 245.502V255.638L296.997 251.248C293.51 247.896 288.903 245.701 284.005 245.502C278.651 245.302 273.546 247.178 269.81 250.809C262.422 257.913 262.422 269.446 269.81 276.549L304.551 309.952C310.195 304.524 310.195 295.705 304.551 290.278L280.021 266.692C278.153 264.897 278.277 261.943 280.353 260.307C282.179 258.871 284.877 259.19 286.496 260.786" fill="white"/>
<path d="M369.106 326V266.3H348.706V256H402.406V266.3H381.906V326H369.106ZM426.704 327.2C421.704 327.2 417.27 326.133 413.404 324C409.537 321.867 406.504 318.867 404.304 315C402.104 311.133 401.004 306.667 401.004 301.6C401.004 296.467 402.07 291.9 404.204 287.9C406.404 283.9 409.404 280.8 413.204 278.6C417.07 276.333 421.604 275.2 426.804 275.2C431.67 275.2 435.97 276.267 439.704 278.4C443.437 280.533 446.337 283.467 448.404 287.2C450.537 290.867 451.604 294.967 451.604 299.5C451.604 300.233 451.57 301 451.504 301.8C451.504 302.6 451.47 303.433 451.404 304.3H413.704C413.97 308.167 415.304 311.2 417.704 313.4C420.17 315.6 423.137 316.7 426.604 316.7C429.204 316.7 431.37 316.133 433.104 315C434.904 313.8 436.237 312.267 437.104 310.4H450.104C449.17 313.533 447.604 316.4 445.404 319C443.27 321.533 440.604 323.533 437.404 325C434.27 326.467 430.704 327.2 426.704 327.2ZM426.804 285.6C423.67 285.6 420.904 286.5 418.504 288.3C416.104 290.033 414.57 292.7 413.904 296.3H438.604C438.404 293.033 437.204 290.433 435.004 288.5C432.804 286.567 430.07 285.6 426.804 285.6ZM486.669 327.2C481.603 327.2 477.136 326.1 473.269 323.9C469.403 321.7 466.336 318.633 464.069 314.7C461.869 310.767 460.769 306.267 460.769 301.2C460.769 296.133 461.869 291.633 464.069 287.7C466.336 283.767 469.403 280.7 473.269 278.5C477.136 276.3 481.603 275.2 486.669 275.2C493.003 275.2 498.336 276.867 502.669 280.2C507.003 283.467 509.769 288 510.969 293.8H497.469C496.803 291.4 495.469 289.533 493.469 288.2C491.536 286.8 489.236 286.1 486.569 286.1C483.036 286.1 480.036 287.433 477.569 290.1C475.103 292.767 473.869 296.467 473.869 301.2C473.869 305.933 475.103 309.633 477.569 312.3C480.036 314.967 483.036 316.3 486.569 316.3C489.236 316.3 491.536 315.633 493.469 314.3C495.469 312.967 496.803 311.067 497.469 308.6H510.969C509.769 314.2 507.003 318.7 502.669 322.1C498.336 325.5 493.003 327.2 486.669 327.2ZM522.33 326V254H535.13V284C536.797 281.267 539.03 279.133 541.83 277.6C544.697 276 547.964 275.2 551.63 275.2C557.764 275.2 562.497 277.133 565.83 281C569.23 284.867 570.93 290.533 570.93 298V326H558.23V299.2C558.23 294.933 557.364 291.667 555.63 289.4C553.964 287.133 551.297 286 547.63 286C544.03 286 541.03 287.267 538.63 289.8C536.297 292.333 535.13 295.867 535.13 300.4V326H522.33Z" fill="#A6BCFA"/>
<path d="M607.37 327.2C602.237 327.2 597.703 326.333 593.77 324.6C589.837 322.8 586.737 320.267 584.47 317C582.203 313.667 581.037 309.633 580.97 304.9H594.47C594.603 308.167 595.77 310.933 597.97 313.2C600.237 315.4 603.337 316.5 607.27 316.5C610.67 316.5 613.37 315.7 615.37 314.1C617.37 312.433 618.37 310.233 618.37 307.5C618.37 304.633 617.47 302.4 615.67 300.8C613.937 299.2 611.604 297.9 608.67 296.9C605.737 295.9 602.604 294.833 599.27 293.7C593.87 291.833 589.737 289.433 586.87 286.5C584.07 283.567 582.67 279.667 582.67 274.8C582.603 270.667 583.57 267.133 585.57 264.2C587.637 261.2 590.437 258.9 593.97 257.3C597.504 255.633 601.57 254.8 606.17 254.8C610.837 254.8 614.937 255.633 618.47 257.3C622.07 258.967 624.87 261.3 626.87 264.3C628.937 267.3 630.037 270.867 630.17 275H616.47C616.404 272.533 615.437 270.367 613.57 268.5C611.77 266.567 609.237 265.6 605.97 265.6C603.17 265.533 600.804 266.233 598.87 267.7C597.004 269.1 596.07 271.167 596.07 273.9C596.07 276.233 596.803 278.1 598.27 279.5C599.737 280.833 601.737 281.967 604.27 282.9C606.804 283.833 609.704 284.833 612.97 285.9C616.437 287.1 619.604 288.5 622.47 290.1C625.337 291.7 627.637 293.833 629.37 296.5C631.104 299.1 631.97 302.467 631.97 306.6C631.97 310.267 631.037 313.667 629.17 316.8C627.304 319.933 624.537 322.467 620.87 324.4C617.204 326.267 612.704 327.2 607.37 327.2ZM664.938 326C659.738 326 655.571 324.733 652.438 322.2C649.305 319.667 647.738 315.167 647.738 308.7V287.1H639.238V276.4H647.738L649.238 263.1H660.538V276.4H673.938V287.1H660.538V308.8C660.538 311.2 661.038 312.867 662.038 313.8C663.105 314.667 664.905 315.1 667.438 315.1H673.638V326H664.938ZM691.128 348L702.628 322.7H699.628L680.328 276.4H694.228L708.128 311.3L722.628 276.4H736.228L704.728 348H691.128ZM744.596 326V254H757.396V326H744.596ZM777.375 268.7C775.042 268.7 773.108 268 771.575 266.6C770.108 265.2 769.375 263.433 769.375 261.3C769.375 259.167 770.108 257.433 771.575 256.1C773.108 254.7 775.042 254 777.375 254C779.708 254 781.608 254.7 783.075 256.1C784.608 257.433 785.375 259.167 785.375 261.3C785.375 263.433 784.608 265.2 783.075 266.6C781.608 268 779.708 268.7 777.375 268.7ZM770.975 326V276.4H783.775V326H770.975ZM819.235 326C814.035 326 809.868 324.733 806.735 322.2C803.602 319.667 802.035 315.167 802.035 308.7V287.1H793.535V276.4H802.035L803.535 263.1H814.835V276.4H828.235V287.1H814.835V308.8C814.835 311.2 815.335 312.867 816.335 313.8C817.402 314.667 819.202 315.1 821.735 315.1H827.935V326H819.235ZM846.125 268.7C843.792 268.7 841.858 268 840.325 266.6C838.858 265.2 838.125 263.433 838.125 261.3C838.125 259.167 838.858 257.433 840.325 256.1C841.858 254.7 843.792 254 846.125 254C848.458 254 850.358 254.7 851.825 256.1C853.358 257.433 854.125 259.167 854.125 261.3C854.125 263.433 853.358 265.2 851.825 266.6C850.358 268 848.458 268.7 846.125 268.7ZM839.725 326V276.4H852.525V326H839.725ZM861.185 326L879.185 301.2L861.185 276.4H874.885L887.485 294L899.985 276.4H913.785L895.685 301.2L913.785 326H899.985L887.485 308.4L874.885 326H861.185Z" fill="white"/>
</g>
<defs>
<clipPath id="clip0_180_5">
<rect width="1200" height="630" fill="white"/>
</clipPath>
</defs>
</svg>
